<svg xmlns="http://www.w3.org/2000/svg" width="50" height="68" viewBox="0 0 50 68">
  <metadata><?xpacket begin="﻿" id="W5M0MpCehiHzreSzNTczkc9d"?>
<x:xmpmeta xmlns:x="adobe:ns:meta/" x:xmptk="Adobe XMP Core 5.6-c142 79.160924, 2017/07/13-01:06:39        ">
   <rdf:RDF xmlns:rdf="http://www.w3.org/1999/02/22-rdf-syntax-ns#">
      <rdf:Description rdf:about=""/>
   </rdf:RDF>
</x:xmpmeta>
                                                                                                    
                                                                                                    
                                                                                                    
                                                                                                    
                                                                                                    
                                                                                                    
                                                                                                    
                                                                                                    
                                                                                                    
                                                                                                    
                                                                                                    
                                                                                                    
                                                                                                    
                                                                                                    
                                                                                                    
                                                                                                    
                                                                                                    
                                                                                                    
                                                                                                    
                                                                                                    
                           
<?xpacket end="w"?></metadata>
<defs>
    <style>
      .cls-1 {
        fill: #fa432b;
        fill-rule: evenodd;
      }
    </style>
  </defs>
  <path id="_1-k.svg" data-name="1-k.svg" class="cls-1" d="M552.273,5418.86v4.44a14.655,14.655,0,0,1-5.635,11.58l1.407,1.77a16.888,16.888,0,0,0,6.5-13.35v-4.44h-2.272Zm-7.387,17.21a14.855,14.855,0,0,1-2.11,1l0.811,2.12a16.875,16.875,0,0,0,2.436-1.16Zm16.477-13.81v1.04a23.6,23.6,0,0,1-4.609,14.07l1.832,1.34a25.864,25.864,0,0,0,5.05-15.41v-1.04h-2.273Zm-7.953-12.47a10.233,10.233,0,0,0-4.957,1.28l1.105,1.98a7.96,7.96,0,0,1,11.805,6.94h2.273A10.214,10.214,0,0,0,553.41,5409.79Zm-7.672,3.46a10.162,10.162,0,0,0-2.556,6.74v3.31a5.64,5.64,0,0,1-2.659,4.8l1.211,1.92a7.9,7.9,0,0,0,3.72-6.72v-3.31a7.932,7.932,0,0,1,1.989-5.25Zm1.989,10.05a10.17,10.17,0,0,1-7.159,9.74l0.682,2.16a12.423,12.423,0,0,0,8.75-11.9h-2.273Zm5.682-8.97a5.668,5.668,0,0,0-5.682,5.66v1.05H550v-1.05a3.409,3.409,0,0,1,6.818,0v3.31a19.22,19.22,0,0,1-.756,5.35l2.184,0.63a21.435,21.435,0,0,0,.845-5.98v-3.31A5.668,5.668,0,0,0,553.409,5414.33Zm1.894,16.46a19.058,19.058,0,0,1-4.442,6.43l1.573,1.64a21.438,21.438,0,0,0,4.962-7.18Zm-20.076-23.26a1.129,1.129,0,0,0-1.136,1.13v6.8h2.273v-5.67h5.681v-2.26h-6.818Zm34.091,0H562.5v2.26h5.682v5.67h2.272v-6.8A1.129,1.129,0,0,0,569.318,5407.53Zm-1.136,28.33v5.67H562.5v2.26h6.818a1.129,1.129,0,0,0,1.136-1.13v-6.8h-2.272Zm-31.818,5.67v-5.67h-2.273v6.8a1.129,1.129,0,0,0,1.136,1.13h6.818v-2.26h-5.681Zm14.772,22.66h2.273v2.27h-2.273v-2.27Zm-10.227-13.6h2.273v2.27h-2.273v-2.27Zm4.545,0h18.182v2.27H545.454v-2.27Zm-4.545,4.54h22.727v2.27H540.909v-2.27Zm30.682-3.4h2.272v11.33h-2.272v-11.33Zm0,13.6h2.272v2.27h-2.272v-2.27Zm2.272-62.34H530.682a1.138,1.138,0,0,0-1.137,1.14v43.06a1.138,1.138,0,0,0,1.137,1.14h4.545v18.13a4.541,4.541,0,0,0,4.545,4.54h25a4.541,4.541,0,0,0,4.546-4.54v-18.13h4.545a1.138,1.138,0,0,0,1.137-1.14v-43.06A1.138,1.138,0,0,0,573.863,5402.99Zm-6.818,63.47a2.273,2.273,0,0,1-2.273,2.27h-25a2.273,2.273,0,0,1-2.272-2.27v-4.53h29.545v4.53Zm0-6.8H537.5v-11.33h29.545v11.33Zm5.682-13.6H531.818v-40.8h40.909v40.8ZM525,5416.59h2.273v24.94H525v-24.94Zm0-4.53h2.273v2.27H525v-2.27Z" transform="translate(-525 -5403)"/>
</svg>
