<svg xmlns="http://www.w3.org/2000/svg" width="26" height="26" viewBox="0 0 26 26">
  <metadata><?xpacket begin="﻿" id="W5M0MpCehiHzreSzNTczkc9d"?>
<x:xmpmeta xmlns:x="adobe:ns:meta/" x:xmptk="Adobe XMP Core 5.6-c142 79.160924, 2017/07/13-01:06:39        ">
   <rdf:RDF xmlns:rdf="http://www.w3.org/1999/02/22-rdf-syntax-ns#">
      <rdf:Description rdf:about=""/>
   </rdf:RDF>
</x:xmpmeta>
                                                                                                    
                                                                                                    
                                                                                                    
                                                                                                    
                                                                                                    
                                                                                                    
                                                                                                    
                                                                                                    
                                                                                                    
                                                                                                    
                                                                                                    
                                                                                                    
                                                                                                    
                                                                                                    
                                                                                                    
                                                                                                    
                                                                                                    
                                                                                                    
                                                                                                    
                                                                                                    
                           
<?xpacket end="w"?></metadata>
<defs>
    <style>
      .cls-1 {
        fill: #fff;
        fill-rule: evenodd;
        opacity: 0.9;
      }
    </style>
  </defs>
  <path id="_1-p.svg" data-name="1-p.svg" class="cls-1" d="M544,321.742a3.729,3.729,0,0,1-3.46-2.311q-0.009-.019-0.015-0.036a3.689,3.689,0,0,1-.27-1.4,3.744,3.744,0,0,1,7.487,0A3.739,3.739,0,0,1,544,321.742Zm-2.481-2.748a0.1,0.1,0,0,1,.007.015,2.672,2.672,0,1,0-.2-1.011A2.628,2.628,0,0,0,541.52,318.994Zm3.367-9.172a0.88,0.88,0,1,1-.88-0.879A0.88,0.88,0,0,1,544.887,309.822Zm-7.8,7.322a0.88,0.88,0,1,1-.879-0.88A0.88,0.88,0,0,1,537.091,317.144Zm12.935-4.611a0.88,0.88,0,1,1-.88-0.879A0.88,0.88,0,0,1,550.026,312.533Zm2.461,4.611a0.88,0.88,0,1,1-.881-0.88A0.882,0.882,0,0,1,552.487,317.144Zm-12.764-4.9a0.88,0.88,0,1,1-.88-0.88A0.881,0.881,0,0,1,539.723,312.243ZM544,331a13,13,0,1,1,0-26,13.142,13.142,0,0,1,2.344.212h0l0.023,0a13,13,0,0,1,10.067,16.578,0.2,0.2,0,0,1-.009.033c-0.115.371-.243,0.731-0.381,1.071a12.967,12.967,0,0,1-10.735,8.037l-0.063.006c-0.216.02-.433,0.036-0.651,0.046C544.4,330.994,544.2,331,544,331Zm0-24.929A11.942,11.942,0,0,0,532.072,318,11.925,11.925,0,0,0,544,329.926c0.182,0,.363,0,0.544-0.013,0.207-.009.41-0.023,0.613-0.043l0.032,0a11.905,11.905,0,0,0,9.862-7.377c0.123-.3.238-0.624,0.342-0.956a0.233,0.233,0,0,1,.008-0.031,11.931,11.931,0,0,0-9.243-15.237l-0.026-.006A12.082,12.082,0,0,0,544,306.07Zm-12.037,16.843h0a0,0,0,0,1,0,0v0Zm20.931,1.56a0.89,0.89,0,0,1-.527-1v-0.5a2.02,2.02,0,0,0-2.175-2.046,2.491,2.491,0,0,0-2.247,1.046,3.82,3.82,0,0,0-.494,2.142,0.777,0.777,0,0,1-.85.587,0.789,0.789,0,0,1-.486-0.144,0.489,0.489,0,0,1-.166-0.41,1.8,1.8,0,0,0-2-1.7,1.848,1.848,0,0,0-2.047,1.7v1.29a0.644,0.644,0,0,1-.375.513,1.506,1.506,0,0,1-1.365.074,0.61,0.61,0,0,1-.3-0.587v-4a1.9,1.9,0,0,0-2.075-1.724,2.194,2.194,0,0,0-1.226.346,1.433,1.433,0,0,0-.645,1.212v2.035a0.834,0.834,0,0,1-.71.882,2.22,2.22,0,0,1-2.249-1.675,12.021,12.021,0,0,0,1.558,2.725,2.411,2.411,0,0,0,.9,0,1.9,1.9,0,0,0,1.577-1.935v-2.035a0.366,0.366,0,0,1,.177-0.326,1.143,1.143,0,0,1,.622-0.16,0.9,0.9,0,0,1,1,.652v4a1.671,1.671,0,0,0,.837,1.515,2.224,2.224,0,0,0,1.108.275,2.688,2.688,0,0,0,1.329-.349,1.673,1.673,0,0,0,.911-1.441v-1.29a0.858,0.858,0,0,1,.975-0.628c0.038,0,.925.007,0.925,0.628a1.56,1.56,0,0,0,.565,1.245,1.848,1.848,0,0,0,1.159.38,1.793,1.793,0,0,0,1.922-1.658,2.911,2.911,0,0,1,.319-1.557,1.413,1.413,0,0,1,1.35-.559,0.954,0.954,0,0,1,1.1.974v0.5a1.762,1.762,0,0,0,1.937,2.072,11.938,11.938,0,0,0,1.421-2.188A1.974,1.974,0,0,1,552.9,324.473Zm2.771-.735a3.6,3.6,0,0,0,.17-0.36C555.781,323.5,555.725,323.619,555.666,323.738Z" transform="translate(-531 -305)"/>
</svg>
