<svg xmlns="http://www.w3.org/2000/svg" width="64" height="64" viewBox="0 0 64 64">
  <metadata><?xpacket begin="﻿" id="W5M0MpCehiHzreSzNTczkc9d"?>
<x:xmpmeta xmlns:x="adobe:ns:meta/" x:xmptk="Adobe XMP Core 5.6-c142 79.160924, 2017/07/13-01:06:39        ">
   <rdf:RDF xmlns:rdf="http://www.w3.org/1999/02/22-rdf-syntax-ns#">
      <rdf:Description rdf:about=""/>
   </rdf:RDF>
</x:xmpmeta>
                                                                                                    
                                                                                                    
                                                                                                    
                                                                                                    
                                                                                                    
                                                                                                    
                                                                                                    
                                                                                                    
                                                                                                    
                                                                                                    
                                                                                                    
                                                                                                    
                                                                                                    
                                                                                                    
                                                                                                    
                                                                                                    
                                                                                                    
                                                                                                    
                                                                                                    
                                                                                                    
                           
<?xpacket end="w"?></metadata>
<defs>
    <style>
      .cls-1 {
        fill: #fa432b;
        fill-rule: evenodd;
      }
    </style>
  </defs>
  <path id="_2-k.svg" data-name="2-k.svg" class="cls-1" d="M987.6,5416.34a25.54,25.54,0,0,0-1.208-7.78l-2.032.65a23.511,23.511,0,0,1-3,20.4l1.758,1.2A25.444,25.444,0,0,0,987.6,5416.34Zm-38.828-19.38-1.205-1.76a25.629,25.629,0,0,0-9.962,28.93l2.032-.65A23.5,23.5,0,0,1,948.773,5396.96Zm-7.388,30.6a22.005,22.005,0,0,1-.988-2.04l-1.964.84c0.32,0.74.683,1.5,1.078,2.22Zm17.892-12.17a2.774,2.774,0,0,1-1.544-2.5v-6.14a4.267,4.267,0,1,1,8.534,0v6.14a2.778,2.778,0,0,1-1.544,2.5,1.065,1.065,0,0,0-.59.95v2.14a1.07,1.07,0,0,0,.808,1.03l5.3,1.33a3.188,3.188,0,0,1,2.424,3.1v5.2H974.8v-5.2a5.317,5.317,0,0,0-4.039-5.17l-4.494-1.13v-0.69a4.882,4.882,0,0,0,2.133-4.05v-6.15a6.4,6.4,0,0,0-12.8,0v6.14a4.906,4.906,0,0,0,2.133,4.06v0.69l-4.493,1.13a5.32,5.32,0,0,0-4.041,5.17v5.2h2.134v-5.2a3.188,3.188,0,0,1,2.424-3.1l5.3-1.33a1.07,1.07,0,0,0,.808-1.03v-2.14A1.065,1.065,0,0,0,959.277,5415.39Zm-5.811,10.55H955.6v5.33h-2.134v-5.33Zm14.934,0h2.134v5.33H968.4v-5.33Zm-36.268,30.92a3.205,3.205,0,0,1,2.424-3.1l5.3-1.33a1.053,1.053,0,0,0,.808-1.03v-2.13a1.062,1.062,0,0,0-.59-0.96,2.779,2.779,0,0,1-1.544-2.49v-6.15a4.267,4.267,0,0,1,8.534,0v6.15a2.761,2.761,0,0,1-1.544,2.49,1.073,1.073,0,0,0-.59.96v2.14a1.063,1.063,0,0,0,.808,1.03l5.3,1.33a3.19,3.19,0,0,1,2.424,3.09V5459H955.6v-2.14a5.328,5.328,0,0,0-4.04-5.17l-4.494-1.12v-0.69a4.893,4.893,0,0,0,2.133-4.05v-6.16a6.4,6.4,0,0,0-12.8,0v6.15a4.875,4.875,0,0,0,2.133,4.05v0.7l-4.493,1.12a5.327,5.327,0,0,0-4.04,5.17V5459h2.133v-2.14h0Zm57.83-5.17-4.494-1.12v-0.69a4.9,4.9,0,0,0,2.133-4.05v-6.16a6.4,6.4,0,0,0-12.8,0v6.15a4.878,4.878,0,0,0,2.134,4.05v0.7l-4.493,1.12a5.329,5.329,0,0,0-4.041,5.17V5459h2.134v-2.14a3.205,3.205,0,0,1,2.423-3.1l5.3-1.33a1.053,1.053,0,0,0,.807-1.03v-2.13a1.058,1.058,0,0,0-.59-0.96,2.78,2.78,0,0,1-1.543-2.49v-6.15a4.267,4.267,0,0,1,8.534,0v6.15a2.763,2.763,0,0,1-1.544,2.49,1.073,1.073,0,0,0-.59.96v2.14a1.062,1.062,0,0,0,.808,1.03l5.3,1.33a3.191,3.191,0,0,1,2.423,3.09V5459H994v-2.14A5.326,5.326,0,0,0,989.962,5451.69Zm-6.627-35.35A21.335,21.335,0,1,0,958.8,5437.4v2.4a1.069,1.069,0,0,0-1.067,1.07v13.86a4.267,4.267,0,1,0,8.534,0v-13.86a1.069,1.069,0,0,0-1.067-1.07v-2.4A21.342,21.342,0,0,0,983.335,5416.34Zm-40.536,0a19.2,19.2,0,1,1,19.2,19.2A19.195,19.195,0,0,1,942.8,5416.34Zm21.334,38.39a2.133,2.133,0,0,1-4.266,0v-12.8h4.266v12.8Zm-1.066-14.93h-2.134v-2.19c0.355,0.02.706,0.06,1.067,0.06s0.712-.04,1.067-0.06v2.19Z" transform="translate(-930 -5395)"/>
</svg>
