<svg xmlns="http://www.w3.org/2000/svg" width="25.031" height="25" viewBox="0 0 25.031 25">
  <metadata><?xpacket begin="﻿" id="W5M0MpCehiHzreSzNTczkc9d"?>
<x:xmpmeta xmlns:x="adobe:ns:meta/" x:xmptk="Adobe XMP Core 5.6-c142 79.160924, 2017/07/13-01:06:39        ">
   <rdf:RDF xmlns:rdf="http://www.w3.org/1999/02/22-rdf-syntax-ns#">
      <rdf:Description rdf:about=""/>
   </rdf:RDF>
</x:xmpmeta>
                                                                                                    
                                                                                                    
                                                                                                    
                                                                                                    
                                                                                                    
                                                                                                    
                                                                                                    
                                                                                                    
                                                                                                    
                                                                                                    
                                                                                                    
                                                                                                    
                                                                                                    
                                                                                                    
                                                                                                    
                                                                                                    
                                                                                                    
                                                                                                    
                                                                                                    
                                                                                                    
                           
<?xpacket end="w"?></metadata>
<defs>
    <style>
      .cls-1 {
        fill: #fff;
        fill-rule: evenodd;
        opacity: 0.9;
      }
    </style>
  </defs>
  <path id="_2-p.svg" data-name="2-p.svg" class="cls-1" d="M865.749,314.883l-0.862-.862a6.621,6.621,0,0,0,1.685,6.4,0.512,0.512,0,0,0,.364.151,0.506,0.506,0,0,0,.362-0.151,0.511,0.511,0,0,0,0-.725A5.588,5.588,0,0,1,865.749,314.883Zm10.971,1.768,0.861,0.86a6.621,6.621,0,0,0-1.685-6.4,0.514,0.514,0,0,0-.727.726A5.586,5.586,0,0,1,876.72,316.651Zm0.15,7.682a0.518,0.518,0,0,1-.363-0.151L862.813,310.5a0.513,0.513,0,0,1,0-.726l2.423-2.42a0.514,0.514,0,0,1,.726,0l13.694,13.685a0.512,0.512,0,0,1,0,.726l-2.422,2.42A0.518,0.518,0,0,1,876.87,324.333Zm-12.968-14.2,12.968,12.96,1.7-1.695L865.6,308.441Zm3.66-1.183a7.742,7.742,0,0,1,10.49,10.483l0.755,0.754a8.77,8.77,0,0,0-12-11.99Zm7.344,13.631A7.741,7.741,0,0,1,864.417,312.1l-0.756-.754a8.771,8.771,0,0,0,12,11.991Zm-9.169.014-8.3,8.3a0.255,0.255,0,0,1-.363,0l-0.972-.97a0.258,0.258,0,0,1,0-.364l8.309-8.3a8.6,8.6,0,0,1-.6-0.848c-0.014.013-.028,0.024-0.042,0.038l-8.39,8.384a1.284,1.284,0,0,0,0,1.815l0.971,0.971a1.287,1.287,0,0,0,1.816,0l8.39-8.384,0.035-.037A8.991,8.991,0,0,1,865.737,322.6Z" transform="translate(-855 -307)"/>
</svg>
