<svg xmlns="http://www.w3.org/2000/svg" width="61" height="61" viewBox="0 0 61 61">
  <metadata><?xpacket begin="﻿" id="W5M0MpCehiHzreSzNTczkc9d"?>
<x:xmpmeta xmlns:x="adobe:ns:meta/" x:xmptk="Adobe XMP Core 5.6-c142 79.160924, 2017/07/13-01:06:39        ">
   <rdf:RDF xmlns:rdf="http://www.w3.org/1999/02/22-rdf-syntax-ns#">
      <rdf:Description rdf:about=""/>
   </rdf:RDF>
</x:xmpmeta>
                                                                                                    
                                                                                                    
                                                                                                    
                                                                                                    
                                                                                                    
                                                                                                    
                                                                                                    
                                                                                                    
                                                                                                    
                                                                                                    
                                                                                                    
                                                                                                    
                                                                                                    
                                                                                                    
                                                                                                    
                                                                                                    
                                                                                                    
                                                                                                    
                                                                                                    
                                                                                                    
                           
<?xpacket end="w"?></metadata>
<defs>
    <style>
      .cls-1 {
        fill: #fa432b;
        fill-rule: evenodd;
      }
    </style>
  </defs>
  <path id="_2-z.svg" data-name="2-z.svg" class="cls-1" d="M933.09,4314.48h6.6l2.369,4.74a0.972,0.972,0,0,0,1.741,0l2.369-4.74h0.483a0.975,0.975,0,0,0,0-1.95h-1.085a0.975,0.975,0,0,0-.87.54l-1.768,3.54-1.767-3.54a0.975,0.975,0,0,0-.871-0.54h-7.2a0.14,0.14,0,0,1-.143-0.14v-24.3a0.14,0.14,0,0,1,.143-0.14h19.677a0.14,0.14,0,0,1,.143.14v10.55a0.974,0.974,0,0,0,1.947,0v-10.55a2.094,2.094,0,0,0-2.09-2.09H933.09a2.094,2.094,0,0,0-2.09,2.09v24.3A2.094,2.094,0,0,0,933.09,4314.48Zm9.839-24.59a4.87,4.87,0,1,0,4.869,4.87A4.879,4.879,0,0,0,942.929,4289.89Zm0,7.79a2.92,2.92,0,1,1,2.922-2.92A2.925,2.925,0,0,1,942.929,4297.68Zm0,5.84a6.023,6.023,0,0,1,3.224.93,0.984,0.984,0,0,0,1.342-.31,0.971,0.971,0,0,0-.309-1.34,8.035,8.035,0,0,0-12.292,6.81,0.977,0.977,0,0,0,.973.98h10.784a0.975,0.975,0,0,0,0-1.95h-9.733a6.1,6.1,0,0,1,6.011-5.12h0ZM989.91,4286H970.234a2.094,2.094,0,0,0-2.091,2.09v10.55a0.974,0.974,0,0,0,1.947,0v-10.55a0.14,0.14,0,0,1,.144-0.14H989.91a0.14,0.14,0,0,1,.143.14v24.3a0.14,0.14,0,0,1-.143.14h-7.2a0.975,0.975,0,0,0-.87.54l-1.767,3.54-1.768-3.54a0.975,0.975,0,0,0-.871-0.54h-1.084a0.975,0.975,0,0,0,0,1.95h0.483l2.369,4.74a0.972,0.972,0,0,0,1.741,0l2.369-4.74h6.6a2.094,2.094,0,0,0,2.09-2.09v-24.3A2.094,2.094,0,0,0,989.91,4286Zm-9.838,3.89a4.87,4.87,0,1,0,4.869,4.87A4.879,4.879,0,0,0,980.072,4289.89Zm0,7.79a2.92,2.92,0,1,1,2.922-2.92A2.925,2.925,0,0,1,980.072,4297.68Zm-4.7,11.93a0.978,0.978,0,0,0,.974.98h10.784a0.977,0.977,0,0,0,.973-0.98,8.035,8.035,0,0,0-12.292-6.81,0.971,0.971,0,0,0-.309,1.34,0.984,0.984,0,0,0,1.342.31,6.014,6.014,0,0,1,3.225-.92,6.091,6.091,0,0,1,6.01,5.11h-9.733a0.976,0.976,0,0,0-.974.97h0Zm-25.8-5.96v24.3a2.094,2.094,0,0,0,2.09,2.09h6.6l2.369,4.74a0.972,0.972,0,0,0,1.742,0l2.368-4.74h6.6a2.094,2.094,0,0,0,2.09-2.09v-24.3a2.094,2.094,0,0,0-2.09-2.09H951.662A2.094,2.094,0,0,0,949.572,4303.65Zm21.91,0v24.3a0.141,0.141,0,0,1-.144.14h-7.2a0.972,0.972,0,0,0-.87.54l-1.768,3.54-1.767-3.54a0.975,0.975,0,0,0-.871-0.54h-7.2a0.141,0.141,0,0,1-.144-0.14v-24.3a0.141,0.141,0,0,1,.144-0.14h19.676a0.141,0.141,0,0,1,.144.14h0Zm-9.982,11.54a4.87,4.87,0,1,0-4.869-4.87A4.872,4.872,0,0,0,961.5,4315.19Zm0-7.79a2.925,2.925,0,1,1-2.923,2.92A2.924,2.924,0,0,1,961.5,4307.4Zm-7.061,18.75h14.122a0.976,0.976,0,0,0,.974-0.97,8.035,8.035,0,1,0-16.07,0,0.976,0.976,0,0,0,.974.97h0Zm7.061-7.06a6.1,6.1,0,0,1,6.01,5.11H955.49A6.1,6.1,0,0,1,961.5,4319.09Zm19.014,24.08a1.04,1.04,0,1,0-1.038-1.04A1.043,1.043,0,0,0,980.514,4343.17Zm-5.321,0a1.04,1.04,0,1,0-1.039-1.04A1.043,1.043,0,0,0,975.193,4343.17Zm10.642,0a1.04,1.04,0,1,0-1.038-1.04A1.042,1.042,0,0,0,985.835,4343.17Zm5.192-5.9H931.973a0.969,0.969,0,0,0-.973.97v7.79a0.975,0.975,0,0,0,.973.97h59.054a0.975,0.975,0,0,0,.973-0.97v-7.79A0.969,0.969,0,0,0,991.027,4337.27Zm-58.08,1.94h36.016v5.84H932.947v-5.84Zm57.106,5.84H970.91v-5.84h19.143v5.84Z" transform="translate(-931 -4286)"/>
</svg>
