<svg xmlns="http://www.w3.org/2000/svg" width="25" height="25" viewBox="0 0 25 25">
  <metadata><?xpacket begin="﻿" id="W5M0MpCehiHzreSzNTczkc9d"?>
<x:xmpmeta xmlns:x="adobe:ns:meta/" x:xmptk="Adobe XMP Core 5.6-c142 79.160924, 2017/07/13-01:06:39        ">
   <rdf:RDF xmlns:rdf="http://www.w3.org/1999/02/22-rdf-syntax-ns#">
      <rdf:Description rdf:about=""/>
   </rdf:RDF>
</x:xmpmeta>
                                                                                                    
                                                                                                    
                                                                                                    
                                                                                                    
                                                                                                    
                                                                                                    
                                                                                                    
                                                                                                    
                                                                                                    
                                                                                                    
                                                                                                    
                                                                                                    
                                                                                                    
                                                                                                    
                                                                                                    
                                                                                                    
                                                                                                    
                                                                                                    
                                                                                                    
                                                                                                    
                           
<?xpacket end="w"?></metadata>
<defs>
    <style>
      .cls-1 {
        fill: #fff;
        fill-rule: evenodd;
        opacity: 0.9;
      }
    </style>
  </defs>
  <path id="_3-p.svg" data-name="3-p.svg" class="cls-1" d="M1143.43,309.571a8.79,8.79,0,0,0-12.43,0,0.448,0.448,0,0,0-.07.077,6.017,6.017,0,0,0-1.02,1.252,8.54,8.54,0,0,0-1.36,3.43c-0.01.024-.01,0.049-0.02,0.074a0.6,0.6,0,0,1-.02.132,8.906,8.906,0,0,0,2.62,7.644,0.525,0.525,0,0,0,.17.111A8.791,8.791,0,0,0,1143.43,309.571Zm-0.73,11.7a7.765,7.765,0,0,1-13.25-5.487c0-.224.02-0.445,0.03-0.665a8.39,8.39,0,0,1,1.24-3.578,0.02,0.02,0,0,1,.01-0.02,0.85,0.85,0,0,1,.08-0.114,7.477,7.477,0,0,1,.71-0.889,5.989,5.989,0,0,1,7.41-.622,4.757,4.757,0,0,1,1.67,6.5,3.7,3.7,0,0,1-5.06,1.3,2.859,2.859,0,0,1-1-3.908,2.177,2.177,0,0,1,2.98-.767,1.621,1.621,0,0,1,.75,1,1.639,1.639,0,0,1-.17,1.244,1.226,1.226,0,0,1-.74.555,1.212,1.212,0,0,1-.92-0.129,0.859,0.859,0,0,1-.3-1.185,0.581,0.581,0,0,1,.8-0.207,0.331,0.331,0,0,1,.17.225,0.341,0.341,0,0,1-.04.278,0.516,0.516,0,1,0,.89.524,1.4,1.4,0,0,0-.49-1.913,1.624,1.624,0,0,0-2.22.569,1.9,1.9,0,0,0,.67,2.6,2.235,2.235,0,0,0,3.06-.789,2.612,2.612,0,0,0,.29-2.023,2.639,2.639,0,0,0-1.23-1.633,3.2,3.2,0,0,0-4.39,1.13,3.879,3.879,0,0,0,1.37,5.316,4.731,4.731,0,0,0,6.47-1.664,5.786,5.786,0,0,0-2.04-7.911,8.1,8.1,0,0,0-2.51-.979c0.09,0,.18-0.007.27-0.007A7.76,7.76,0,0,1,1142.7,321.273Zm-11,1.359-8.26,8.261a0.249,0.249,0,0,1-.36,0l-0.97-.973a0.247,0.247,0,0,1,0-.364l8.26-8.261a7.98,7.98,0,0,1-.6-0.843c-0.02.017-.05,0.032-0.07,0.051l-8.32,8.325a1.28,1.28,0,0,0,0,1.82l0.97,0.973a1.28,1.28,0,0,0,.91.377,1.263,1.263,0,0,0,.91-0.377l8.33-8.325a0.272,0.272,0,0,1,.05-0.062A8.841,8.841,0,0,1,1131.7,322.632Z" transform="translate(-1121 -307)"/>
</svg>
