<svg xmlns="http://www.w3.org/2000/svg" width="63" height="63" viewBox="0 0 63 63">
  <metadata><?xpacket begin="﻿" id="W5M0MpCehiHzreSzNTczkc9d"?>
<x:xmpmeta xmlns:x="adobe:ns:meta/" x:xmptk="Adobe XMP Core 5.6-c142 79.160924, 2017/07/13-01:06:39        ">
   <rdf:RDF xmlns:rdf="http://www.w3.org/1999/02/22-rdf-syntax-ns#">
      <rdf:Description rdf:about=""/>
   </rdf:RDF>
</x:xmpmeta>
                                                                                                    
                                                                                                    
                                                                                                    
                                                                                                    
                                                                                                    
                                                                                                    
                                                                                                    
                                                                                                    
                                                                                                    
                                                                                                    
                                                                                                    
                                                                                                    
                                                                                                    
                                                                                                    
                                                                                                    
                                                                                                    
                                                                                                    
                                                                                                    
                                                                                                    
                                                                                                    
                           
<?xpacket end="w"?></metadata>
<defs>
    <style>
      .cls-1 {
        fill: #fa432b;
        fill-rule: evenodd;
      }
    </style>
  </defs>
  <path id="_3-z.svg" data-name="3-z.svg" class="cls-1" d="M1372.5,4303.43a13.07,13.07,0,1,0,13.07,13.07A13.081,13.081,0,0,0,1372.5,4303.43Zm11.01,12.06h-3.99a18.388,18.388,0,0,0-2.5-9.08A11.082,11.082,0,0,1,1383.51,4315.49Zm-12.02-9.8v9.8h-3.99a17.783,17.783,0,0,1,1.63-7.07A5.944,5.944,0,0,1,1371.49,4305.69Zm0,11.81v9.8a5.86,5.86,0,0,1-2.36-2.72,17.834,17.834,0,0,1-1.63-7.08h3.99Zm2.02,9.8v-9.8h3.99a17.834,17.834,0,0,1-1.63,7.08,5.86,5.86,0,0,1-2.36,2.72h0Zm0-11.81v-9.8a5.944,5.944,0,0,1,2.36,2.73,17.783,17.783,0,0,1,1.63,7.07h-3.99Zm-5.53-9.08a18.388,18.388,0,0,0-2.5,9.08h-3.99a11.082,11.082,0,0,1,6.49-9.08h0Zm-6.49,11.09h3.99a18.428,18.428,0,0,0,2.5,9.09A11.083,11.083,0,0,1,1361.49,4317.5Zm15.53,9.09a18.428,18.428,0,0,0,2.5-9.09h3.99A11.083,11.083,0,0,1,1377.02,4326.59Zm26.64-30.76a1.007,1.007,0,0,0-.83-0.24,32.63,32.63,0,0,1-5.22.43,33.819,33.819,0,0,1-24.39-10.71,0.991,0.991,0,0,0-1.44,0,33.819,33.819,0,0,1-24.39,10.71,32.63,32.63,0,0,1-5.22-.43,1.007,1.007,0,0,0-.83.24,1,1,0,0,0-.34.79,71.288,71.288,0,0,0,5.54,25.87,50.668,50.668,0,0,0,10.62,15.68c7.51,7.47,14.75,9.7,15.05,9.79a1.071,1.071,0,0,0,.58,0c0.3-.09,7.54-2.32,15.05-9.79a50.668,50.668,0,0,0,10.62-15.68,71.288,71.288,0,0,0,5.54-25.87,1,1,0,0,0-.34-0.79h0Zm-17.16,40.84a39.558,39.558,0,0,1-14,9.26,39.277,39.277,0,0,1-13.92-9.18c-6.52-6.48-14.43-18.48-15.51-39a32.871,32.871,0,0,0,4.32.28,34.414,34.414,0,0,0,14.05-3.02,37.39,37.39,0,0,0,11.06-7.58,37.39,37.39,0,0,0,11.06,7.58,34.414,34.414,0,0,0,14.05,3.02,32.871,32.871,0,0,0,4.32-.28c-1.08,20.46-8.95,32.44-15.43,38.92h0Zm-13.36-44.17a1.023,1.023,0,0,0-1.28,0,38.428,38.428,0,0,1-24.05,8.88,0.96,0.96,0,0,0-.74.34,1,1,0,0,0-.25.78,62.36,62.36,0,0,0,4.47,17.46,45.517,45.517,0,0,0,9.24,13.99,38.145,38.145,0,0,0,11.56,8.21,0.979,0.979,0,0,0,.82,0,37.8,37.8,0,0,0,10.08-6.77,1,1,0,1,0-1.36-1.47,36.313,36.313,0,0,1-9.13,6.22,36.446,36.446,0,0,1-10.53-7.59,43.789,43.789,0,0,1-8.84-13.39,59.9,59.9,0,0,1-4.18-15.8,40.434,40.434,0,0,0,23.55-8.79,40.434,40.434,0,0,0,23.55,8.79,59.9,59.9,0,0,1-4.18,15.8,44.488,44.488,0,0,1-7.5,11.95,1.009,1.009,0,0,0,1.51,1.34,46.258,46.258,0,0,0,7.83-12.49,62.36,62.36,0,0,0,4.47-17.46,1,1,0,0,0-.25-0.78,0.96,0.96,0,0,0-.74-0.34,38.428,38.428,0,0,1-24.05-8.88h0Z" transform="translate(-1341 -4285)"/>
</svg>
