<svg xmlns="http://www.w3.org/2000/svg" width="70" height="56" viewBox="0 0 70 56">
  <metadata><?xpacket begin="﻿" id="W5M0MpCehiHzreSzNTczkc9d"?>
<x:xmpmeta xmlns:x="adobe:ns:meta/" x:xmptk="Adobe XMP Core 5.6-c142 79.160924, 2017/07/13-01:06:39        ">
   <rdf:RDF xmlns:rdf="http://www.w3.org/1999/02/22-rdf-syntax-ns#">
      <rdf:Description rdf:about=""/>
   </rdf:RDF>
</x:xmpmeta>
                                                                                                    
                                                                                                    
                                                                                                    
                                                                                                    
                                                                                                    
                                                                                                    
                                                                                                    
                                                                                                    
                                                                                                    
                                                                                                    
                                                                                                    
                                                                                                    
                                                                                                    
                                                                                                    
                                                                                                    
                                                                                                    
                                                                                                    
                                                                                                    
                                                                                                    
                                                                                                    
                           
<?xpacket end="w"?></metadata>
<defs>
    <style>
      .cls-1 {
        fill: #fa432b;
        fill-rule: evenodd;
      }
    </style>
  </defs>
  <path id="_4-k.svg" data-name="4-k.svg" class="cls-1" d="M583.833,5815.66h-1.166v-41.98a4.668,4.668,0,0,0-4.667-4.67H522a4.668,4.668,0,0,0-4.667,4.67v41.98h-1.166a1.164,1.164,0,0,0-1.167,1.16v3.5a4.668,4.668,0,0,0,4.667,4.67h60.666a4.668,4.668,0,0,0,4.667-4.67v-3.5A1.164,1.164,0,0,0,583.833,5815.66Zm-64.166-41.98a2.338,2.338,0,0,1,2.333-2.34h56a2.338,2.338,0,0,1,2.333,2.34v41.98H560.5a1.159,1.159,0,0,0-.825.34l-1.991,1.99H542.316l-1.991-1.99a1.161,1.161,0,0,0-.825-0.34H519.667v-41.98Zm63,46.64a2.339,2.339,0,0,1-2.334,2.34H519.667a2.339,2.339,0,0,1-2.334-2.34v-2.33h21.684l1.991,1.99a1.161,1.161,0,0,0,.825.34h16.334a1.157,1.157,0,0,0,.824-0.34l1.992-1.99h21.684v2.33Zm-7-45.48H524.333a1.172,1.172,0,0,0-1.166,1.17v34.98a1.166,1.166,0,0,0,1.166,1.17h51.334a1.166,1.166,0,0,0,1.166-1.17v-34.98A1.172,1.172,0,0,0,575.667,5774.84Zm-1.167,34.99h-49v-32.65h49v32.65Zm-16.333-25.66a0.916,0.916,0,0,0-.284.04,6.075,6.075,0,0,1-6.336-2.25l-0.614-.82a1.2,1.2,0,0,0-1.705-.16,1.159,1.159,0,0,0-.161.16l-0.614.82a6.094,6.094,0,0,1-6.336,2.25,1.162,1.162,0,0,0-1.415.84,1.151,1.151,0,0,0-.035.29v4.43a11.621,11.621,0,0,0,5.853,10.08l2.9,1.66a1.141,1.141,0,0,0,1.157,0l2.9-1.66a11.623,11.623,0,0,0,5.858-10.08v-4.43A1.166,1.166,0,0,0,558.167,5784.17Zm-1.167,5.6a9.308,9.308,0,0,1-4.677,8.06L550,5799.16l-2.323-1.33a9.3,9.3,0,0,1-4.677-8.06v-3.07a8.4,8.4,0,0,0,7-2.94,8.427,8.427,0,0,0,7,2.94v3.07ZM551.167,5804H553.5v2.33h-2.333V5804Zm4.666,0h2.334v2.33h-2.334V5804Zm4.667,0h2.333v2.33H560.5V5804Zm-23.333,0H539.5v2.33h-2.333V5804Zm4.666,0h2.334v2.33h-2.334V5804Zm4.667,0h2.333v2.33H546.5V5804Zm2.333-14h2.334v2.34h-2.334V5790Z" transform="translate(-515 -5769)"/>
</svg>
