<svg xmlns="http://www.w3.org/2000/svg" width="159.532" height="22.813" viewBox="0 0 159.532 22.813">
  <metadata><?xpacket begin="﻿" id="W5M0MpCehiHzreSzNTczkc9d"?>
<x:xmpmeta xmlns:x="adobe:ns:meta/" x:xmptk="Adobe XMP Core 5.6-c142 79.160924, 2017/07/13-01:06:39        ">
   <rdf:RDF xmlns:rdf="http://www.w3.org/1999/02/22-rdf-syntax-ns#">
      <rdf:Description rdf:about=""/>
   </rdf:RDF>
</x:xmpmeta>
                                                                                                    
                                                                                                    
                                                                                                    
                                                                                                    
                                                                                                    
                                                                                                    
                                                                                                    
                                                                                                    
                                                                                                    
                                                                                                    
                                                                                                    
                                                                                                    
                                                                                                    
                                                                                                    
                                                                                                    
                                                                                                    
                                                                                                    
                                                                                                    
                                                                                                    
                                                                                                    
                           
<?xpacket end="w"?></metadata>
<defs>
    <style>
      .cls-1 {
        fill: #333;
        fill-rule: evenodd;
      }
    </style>
  </defs>
  <path id="DateRate1.svg" class="cls-1" d="M422.684,30.5c0.39-2.31-.03-3.27-2.25-3.27a3.5,3.5,0,0,0-1.71.3,5.575,5.575,0,0,1-.03,2.82L416.535,42.7a5.435,5.435,0,0,0-1.17-.15c-1.59,0-2.28.84-2.28,1.8,0,0.87.66,1.77,2.43,1.77a5.487,5.487,0,0,0,3.089-.81,10.647,10.647,0,0,0,4.11.81c6.389,0,10.979-4.29,10.979-11.459,0-6.51-5.16-11.039-13.409-11.039-6.419,0-9.629,2.76-9.629,5.729a2.877,2.877,0,0,0,3.15,3c1.53,0,2.28-.96,2.28-1.68a0.944,0.944,0,0,0-.03-0.27,1.228,1.228,0,0,1-.51.09,1.205,1.205,0,0,1-1.2-1.38c0-1.71,1.65-3.84,6.089-3.84,5.7,0,9.089,3.39,9.089,8.939,0,6.03-2.939,10.109-7.8,10.109a6.207,6.207,0,0,1-1.83-.27,5.583,5.583,0,0,0,.78-2.1Zm25.542,3.09a5.924,5.924,0,0,1,.69-2.16,3.022,3.022,0,0,0-1.5-.3c-1.47,0-2.22.39-2.7,1.47a3.935,3.935,0,0,0-3.24-1.47c-3.509,0-7.409,3.15-7.409,9.839,0,3.51,1.95,5.16,4.409,5.16,1.71,0,3.36-1.17,4.59-3.39a3.338,3.338,0,0,0,3.51,3.39c2.909,0,5.069-2.85,5.369-4.44a0.569,0.569,0,0,0-.57-0.78c-0.78,1.62-2.129,2.61-3.149,2.61-1.08,0-1.62-.84-1.29-2.64Zm-8.55,9.929c-1.11,0-1.769-.81-1.769-2.49,0-4.829,2.309-7.859,4.349-7.859a2.172,2.172,0,0,1,1.98,1.44l-0.27,1.41C443.4,39.015,441.806,43.514,439.676,43.514Zm11.383-12.389a0.883,0.883,0,0,0-1.02.87,1.016,1.016,0,0,0,.21.63H452.2l-1.109,6.329a18.273,18.273,0,0,0-.33,3.21,3.811,3.811,0,0,0,3.959,3.96,6.52,6.52,0,0,0,5.73-4.44,0.553,0.553,0,0,0-.54-0.78,4.333,4.333,0,0,1-3.6,2.61c-1.41,0-2.01-.99-1.71-2.64l1.44-8.249h2.43a0.882,0.882,0,0,0,1.02-.87,1.017,1.017,0,0,0-.21-0.63h-2.97l0.27-1.5c0.39-2.1.09-2.97-2.22-2.97a3.292,3.292,0,0,0-1.56.27,4.692,4.692,0,0,1-.03,2.58l-0.3,1.62h-1.409Zm14.393,15c4.589,0,7.469-3.12,7.739-4.44,0.12-.54-0.09-0.78-0.48-0.78a6.678,6.678,0,0,1-5.849,2.85,4.118,4.118,0,0,1-4.29-3.99c5.28-.99,8.429-2.79,8.429-5.52,0-1.53-1.23-3.12-4.289-3.12a8.19,8.19,0,0,0-8.04,8.519C458.672,43.694,461.522,46.124,465.452,46.124Zm1.29-13.5a0.991,0.991,0,0,1,1.049,1.05c0,1.98-1.529,3.81-5.189,4.68C462.932,34.6,465.032,32.625,466.742,32.625Zm19.238,4.17c3.569-.45,6.689-2.91,6.689-6.21,0-4.109-3.57-6.959-11.519-6.959-7.019,0-10.169,2.76-10.169,5.729a2.877,2.877,0,0,0,3.15,3c1.53,0,2.279-.96,2.279-1.68a0.944,0.944,0,0,0-.03-0.27,1.226,1.226,0,0,1-.509.09,1.205,1.205,0,0,1-1.2-1.38c0-1.71,1.679-3.84,6.239-3.84,5.49,0.03,7.589,2.04,7.589,5.129,0,3.51-2.279,5.7-5.819,5.7h-1.14l1.05-6.03c0.39-2.31-.03-3.269-2.25-3.269a3.5,3.5,0,0,0-1.71.3,5.577,5.577,0,0,1-.03,2.82l-2.25,12.929c-0.39,2.31.03,3.27,2.25,3.27a3.5,3.5,0,0,0,1.71-.3,5.677,5.677,0,0,1,.03-2.85l0.9-5.219h1.71c1.35,0,1.92.84,2.34,2.46l0.57,2.19c0.6,2.31,1.979,3.72,4.109,3.72,2.7,0,4.98-2.76,5.19-4.44a0.577,0.577,0,0,0-.57-0.78c-0.36.75-1.56,2.61-2.94,2.61-0.96,0-1.53-.78-1.98-2.25l-0.51-1.65A4.112,4.112,0,0,0,485.98,36.795Zm22.376-3.21a5.924,5.924,0,0,1,.69-2.16,3.022,3.022,0,0,0-1.5-.3c-1.469,0-2.219.39-2.7,1.47a3.935,3.935,0,0,0-3.24-1.47c-3.51,0-7.409,3.15-7.409,9.839,0,3.51,1.949,5.16,4.409,5.16,1.71,0,3.36-1.17,4.59-3.39a3.338,3.338,0,0,0,3.51,3.39c2.909,0,5.069-2.85,5.369-4.44a0.569,0.569,0,0,0-.57-0.78c-0.78,1.62-2.13,2.61-3.15,2.61-1.08,0-1.62-.84-1.29-2.64Zm-8.549,9.929c-1.11,0-1.77-.81-1.77-2.49,0-4.829,2.31-7.859,4.35-7.859a2.172,2.172,0,0,1,1.98,1.44l-0.27,1.41C503.527,39.015,501.937,43.514,499.807,43.514Zm11.382-12.389a0.883,0.883,0,0,0-1.02.87,1.016,1.016,0,0,0,.21.63h1.95l-1.11,6.329a18.273,18.273,0,0,0-.33,3.21,3.812,3.812,0,0,0,3.96,3.96,6.518,6.518,0,0,0,5.729-4.44,0.553,0.553,0,0,0-.539-0.78,4.333,4.333,0,0,1-3.6,2.61c-1.41,0-2.01-.99-1.71-2.64l1.44-8.249h2.43a0.882,0.882,0,0,0,1.02-.87,1.017,1.017,0,0,0-.21-0.63h-2.97l0.27-1.5c0.39-2.1.09-2.97-2.22-2.97a3.292,3.292,0,0,0-1.56.27,4.692,4.692,0,0,1-.03,2.58l-0.3,1.62h-1.41Zm14.393,15c4.59,0,7.47-3.12,7.74-4.44,0.12-.54-0.09-0.78-0.48-0.78a6.679,6.679,0,0,1-5.85,2.85,4.117,4.117,0,0,1-4.289-3.99c5.279-.99,8.429-2.79,8.429-5.52,0-1.53-1.23-3.12-4.29-3.12a8.189,8.189,0,0,0-8.039,8.519C518.8,43.694,521.653,46.124,525.582,46.124Zm1.29-13.5a0.992,0.992,0,0,1,1.05,1.05c0,1.98-1.53,3.81-5.189,4.68C523.063,34.6,525.163,32.625,526.872,32.625Zm7.432,12a1.716,1.716,0,0,0,1.8,1.8,2.094,2.094,0,0,0,2.16-2.07,1.787,1.787,0,0,0-1.86-1.889A2.119,2.119,0,0,0,534.3,44.624ZM546.117,34.1c0.36-2.01.09-2.97-2.22-2.97a3.288,3.288,0,0,0-1.56.27,5.128,5.128,0,0,1-.03,2.58l-1.589,9.179c-0.36,2.1-.09,2.97,2.219,2.97a3.289,3.289,0,0,0,1.56-.27,4.547,4.547,0,0,1,0-2.4c0.72-4.229,1.71-6.089,2.85-7.679,0.99-1.38,1.65-1.77,2.13-1.77a0.566,0.566,0,0,1,.63.66,3.413,3.413,0,0,1-.39,1.5,4.938,4.938,0,0,0,1.35.18,2.594,2.594,0,0,0,2.49-2.88,2.163,2.163,0,0,0-2.4-2.34c-1.35,0-3.36,1.05-5.28,4.29ZM561.3,42.374c0,2.4,1.44,3.75,3.509,3.75,2.91,0,5.07-2.85,5.37-4.44a0.569,0.569,0,0,0-.57-0.78c-0.78,1.62-2.13,2.61-3.15,2.61-1.08,0-1.59-.84-1.29-2.64l1.17-6.779c0.36-2.1.09-2.97-2.22-2.97a3.288,3.288,0,0,0-1.56.27,4.618,4.618,0,0,1,0,2.28,22.671,22.671,0,0,1-3.029,7.829c-0.78,1.2-1.56,2.01-2.22,2.01-0.87,0-1.29-.78-0.99-2.49l1.2-6.929c0.36-2.1.09-2.97-2.22-2.97a3.288,3.288,0,0,0-1.56.27,5.128,5.128,0,0,1-.03,2.58l-0.87,4.979a20.215,20.215,0,0,0-.36,3.69,3.177,3.177,0,0,0,3.27,3.48c1.65,0,2.97-.84,4.23-2.55a14.039,14.039,0,0,0,1.35-2.22C561.3,41.775,561.3,42.1,561.3,42.374Z" transform="translate(-410.656 -23.625)"/>
</svg>
