<svg xmlns="http://www.w3.org/2000/svg" width="40" height="40" viewBox="0 0 40 40">
  <metadata><?xpacket begin="﻿" id="W5M0MpCehiHzreSzNTczkc9d"?>
<x:xmpmeta xmlns:x="adobe:ns:meta/" x:xmptk="Adobe XMP Core 5.6-c142 79.160924, 2017/07/13-01:06:39        ">
   <rdf:RDF xmlns:rdf="http://www.w3.org/1999/02/22-rdf-syntax-ns#">
      <rdf:Description rdf:about=""/>
   </rdf:RDF>
</x:xmpmeta>
                                                                                                    
                                                                                                    
                                                                                                    
                                                                                                    
                                                                                                    
                                                                                                    
                                                                                                    
                                                                                                    
                                                                                                    
                                                                                                    
                                                                                                    
                                                                                                    
                                                                                                    
                                                                                                    
                                                                                                    
                                                                                                    
                                                                                                    
                                                                                                    
                                                                                                    
                                                                                                    
                           
<?xpacket end="w"?></metadata>
<defs>
    <style>
      .cls-1 {
        fill: #e6e6e6;
        fill-rule: evenodd;
      }
    </style>
  </defs>
  <path id="под_заливкой" data-name="под заливкой" class="cls-1" d="M1284.18,2288a3.18,3.18,0,1,1-3.18,3.18A3.175,3.175,0,0,1,1284.18,2288Zm14.55,0a3.18,3.18,0,1,1-3.18,3.18A3.182,3.182,0,0,1,1298.73,2288Zm-7.73-10a20,20,0,1,0,20,20A20.02,20.02,0,0,0,1291,2278Zm0,38.18a18.18,18.18,0,1,1,18.18-18.18A18.2,18.2,0,0,1,1291,2316.18Zm10-16.36h-20a0.907,0.907,0,0,0-.91.91,10.91,10.91,0,0,0,21.82,0A0.907,0.907,0,0,0,1301,2299.82Zm-10,10a9.111,9.111,0,0,1-9.05-8.18h18.1A9.111,9.111,0,0,1,1291,2309.82Z" transform="translate(-1271 -2278)"/>
</svg>
